<?xml version="1.0" encoding="utf-8"?>
<!-- Generator: Adobe Illustrator 19.1.0, SVG Export Plug-In . SVG Version: 6.00 Build 0)  -->
<svg version="1.1" id="Layer_1" xmlns="http://www.w3.org/2000/svg" xmlns:xlink="http://www.w3.org/1999/xlink" x="0px" y="0px"
	 viewBox="-474 356.1 128 79.7" style="enable-background:new -474 356.1 128 79.7;" xml:space="preserve">
<style type="text/css">
	.st0{fill:#FFFFFF;}
	.st1{fill:#4A4E59;}
	.st2{fill:#9BC4B1;}
</style>
<g>
	<g>
		<polyline class="st0" points="-473.5,435.3 -352.8,435.3 -473.5,435.3 -473.5,362.9 -467.2,356.6 -437.1,356.6 -437.1,381.3 
			-406.9,381.3 -406.9,404.9 -346.6,404.9 -346.6,429 -352.8,435.3 		"/>
	</g>
	<g>
		<path class="st1" d="M-442.8,387.5H-474v-25.2h31.2V387.5z M-472.9,386.5h29.1v-23.1h-29.1V386.5z"/>
	</g>
	<g>
		<path class="st1" d="M-412.6,411.7H-474v-25.2h61.4V411.7z M-472.9,410.6h59.3v-23.1h-59.3V410.6z"/>
	</g>
	<g>
		<path class="st1" d="M-352.8,435.8h-120.7l-0.5-0.5v-24.1l0.5-0.5h120.7l0.5,0.5v24.1L-352.8,435.8z M-472.9,434.7h119.6v-23.1
			h-119.6V434.7z"/>
	</g>
	<g>
		<polygon class="st2" points="-346.6,404.9 -352.8,411.1 -352.8,435.3 -346.6,429 		"/>
		<path class="st1" d="M-352.4,435.6l-0.9-0.4v-24.1l0.2-0.4l6.2-6.2l0.9,0.4V429l-0.2,0.4L-352.4,435.6z M-352.3,411.4V434l5.2-5.2
			v-22.6L-352.3,411.4z"/>
	</g>
	<g>
		<polygon class="st2" points="-406.9,381.3 -413.1,387.5 -413.1,411.7 -406.9,405.4 		"/>
		<path class="st1" d="M-412.8,412l-0.9-0.4v-24.1l0.2-0.4l6.2-6.2l0.9,0.4v24.1l-0.2,0.4L-412.8,412z M-412.6,387.7v22.6l5.2-5.2
			v-22.6L-412.6,387.7z"/>
	</g>
	<g>
		<polygon class="st2" points="-437.1,356.6 -443.3,362.9 -443.3,387 -437.1,380.8 		"/>
		<path class="st1" d="M-442.9,387.4l-0.9-0.4v-24.1l0.2-0.4l6.2-6.2l0.9,0.4v24.1l-0.2,0.4L-442.9,387.4z M-442.8,363.1v22.6
			l5.2-5.2v-22.6L-442.8,363.1z"/>
	</g>
	<g>
		<polygon class="st1" points="-473.1,363.2 -473.8,362.5 -467.6,356.3 -467.2,356.1 -437.1,356.1 -437.1,357.2 -467,357.2 		"/>
	</g>
	<g>
		<rect x="-406.9" y="404.4" class="st1" width="60.3" height="1.1"/>
	</g>
	<g>
		<rect x="-437.1" y="380.8" class="st1" width="30.2" height="1.1"/>
	</g>
	<g>
		<path class="st1" d="M-473.5,435.3"/>
	</g>
	<g>
		<path class="st1" d="M-466.4,372.1c0-0.5,0.3-0.8,0.8-0.8c0.5,0,0.8,0.3,0.8,0.8v2.3h3.3v-2.3c0-0.5,0.3-0.8,0.8-0.8
			c0.5,0,0.8,0.3,0.8,0.8v6c0,0.5-0.3,0.8-0.8,0.8c-0.5,0-0.8-0.3-0.8-0.8v-2.3h-3.3v2.3c0,0.5-0.3,0.8-0.8,0.8
			c-0.5,0-0.8-0.3-0.8-0.8V372.1z"/>
		<path class="st1" d="M-458.4,372.1c0-0.5,0.3-0.8,0.8-0.8c0.5,0,0.8,0.3,0.8,0.8v6c0,0.5-0.3,0.8-0.8,0.8c-0.5,0-0.8-0.3-0.8-0.8
			V372.1z"/>
		<path class="st1" d="M-455.3,372.2c0-0.5,0.3-0.8,0.8-0.8h1.9c1.6,0,2.7,1,2.7,2.5c0,1.6-1.2,2.5-2.7,2.5h-1.2v1.7
			c0,0.5-0.3,0.8-0.8,0.8c-0.5,0-0.8-0.3-0.8-0.8V372.2z M-453.7,375h1.1c0.7,0,1.1-0.5,1.1-1.1c0-0.6-0.4-1.1-1.1-1.1h-1.1V375z"/>
	</g>
	<g>
		<path class="st1" d="M-461.1,398.5c-0.3,0-0.6-0.2-1-0.2c-0.7,0-1,0.6-1,1.3c0,0.6,0.4,1.2,1,1.2c0.3,0,0.8-0.3,0.9-0.3
			c0.3,0,0.5,0.2,0.5,0.5c0,0.6-1.1,0.8-1.5,0.8c-1.3,0-2.2-1.1-2.2-2.4c0-1.2,0.9-2.4,2.2-2.4c0.5,0,1.5,0.2,1.5,0.8
			C-460.6,398.2-460.8,398.5-461.1,398.5z"/>
		<path class="st1" d="M-455.5,399.5c0,1.3-0.9,2.4-2.2,2.4s-2.2-1.1-2.2-2.4c0-1.2,0.9-2.4,2.2-2.4S-455.5,398.3-455.5,399.5z
			 M-458.7,399.5c0,0.6,0.3,1.2,1,1.2c0.7,0,1-0.6,1-1.2c0-0.6-0.3-1.3-1-1.3S-458.7,398.9-458.7,399.5z"/>
		<path class="st1" d="M-454.6,397.9c0-0.4,0.3-0.7,0.6-0.7c0.3,0,0.5,0.2,0.6,0.5c0.2-0.3,0.6-0.5,1.2-0.5c1,0,1.7,0.6,1.7,1.7v2.4
			c0,0.4-0.3,0.7-0.6,0.7s-0.6-0.3-0.6-0.7V399c0-0.6-0.4-0.8-0.8-0.8c-0.5,0-0.8,0.4-0.8,0.8v2.1c0,0.4-0.3,0.7-0.6,0.7
			c-0.4,0-0.6-0.3-0.6-0.7V397.9z"/>
		<path class="st1" d="M-449.1,398.3h-0.3c-0.3,0-0.5-0.2-0.5-0.5c0-0.3,0.2-0.5,0.5-0.5h0.3v-0.7c0-0.4,0.3-0.7,0.6-0.7
			c0.4,0,0.6,0.3,0.6,0.7v0.7h0.3c0.3,0,0.6,0.1,0.6,0.5c0,0.4-0.3,0.5-0.6,0.5h-0.3v2.8c0,0.4-0.3,0.7-0.6,0.7
			c-0.4,0-0.6-0.3-0.6-0.7V398.3z"/>
		<path class="st1" d="M-442.3,401c0,0.3,0,0.8-0.6,0.8c-0.4,0-0.5-0.2-0.6-0.5c-0.3,0.4-0.7,0.6-1.2,0.6c-1.2,0-2-1-2-2.4
			c0-1.3,0.9-2.4,2-2.4c0.5,0,0.9,0.2,1.2,0.6c0-0.3,0.3-0.5,0.6-0.5c0.6,0,0.6,0.5,0.6,0.8V401z M-444.5,400.8
			c0.6,0,0.9-0.6,0.9-1.2c0-0.6-0.3-1.3-0.9-1.3c-0.7,0-1,0.7-1,1.3C-445.4,400.1-445.1,400.8-444.5,400.8z"/>
		<path class="st1" d="M-439.9,396c0,0.4-0.3,0.7-0.7,0.7c-0.4,0-0.7-0.3-0.7-0.7c0-0.3,0.3-0.7,0.7-0.7
			C-440.2,395.4-439.9,395.7-439.9,396z M-441.2,397.9c0-0.4,0.3-0.7,0.6-0.7s0.6,0.3,0.6,0.7v3.3c0,0.4-0.3,0.7-0.6,0.7
			s-0.6-0.3-0.6-0.7V397.9z"/>
		<path class="st1" d="M-438.8,397.9c0-0.4,0.3-0.7,0.6-0.7c0.3,0,0.5,0.2,0.6,0.5c0.2-0.3,0.6-0.5,1.2-0.5c1,0,1.7,0.6,1.7,1.7v2.4
			c0,0.4-0.3,0.7-0.6,0.7c-0.4,0-0.6-0.3-0.6-0.7V399c0-0.6-0.4-0.8-0.8-0.8c-0.5,0-0.8,0.4-0.8,0.8v2.1c0,0.4-0.3,0.7-0.6,0.7
			s-0.6-0.3-0.6-0.7V397.9z"/>
		<path class="st1" d="M-432.7,399.9c0.1,0.6,0.6,0.9,1.2,0.9c0.6,0,1.1-0.5,1.4-0.5c0.3,0,0.5,0.3,0.5,0.5c0,0.5-1.1,1-2,1
			c-1.4,0-2.3-1-2.3-2.4c0-1.2,0.9-2.4,2.2-2.4c1.3,0,2.2,1.2,2.2,2.2c0,0.4-0.2,0.5-0.5,0.5H-432.7z M-430.8,399.1
			c-0.1-0.5-0.4-0.9-1-0.9c-0.5,0-0.9,0.4-1,0.9H-430.8z"/>
		<path class="st1" d="M-428.7,397.8c0-0.4,0.3-0.6,0.6-0.6c0.3,0,0.6,0.1,0.6,0.5h0c0.2-0.3,0.5-0.5,0.9-0.5c0.3,0,0.6,0.2,0.6,0.7
			c0,0.4-0.4,0.4-0.7,0.6c-0.4,0.2-0.7,0.3-0.7,0.8v1.9c0,0.4-0.3,0.7-0.6,0.7c-0.4,0-0.6-0.3-0.6-0.7V397.8z"/>
		<path class="st1" d="M-422.8,398.6c-0.2,0-0.7-0.4-1.1-0.4c-0.2,0-0.4,0.1-0.4,0.3c0,0.6,2.1,0.5,2.1,1.9c0,0.8-0.7,1.4-1.7,1.4
			c-0.7,0-1.7-0.4-1.7-0.9c0-0.2,0.2-0.5,0.5-0.5c0.5,0,0.7,0.4,1.3,0.4c0.4,0,0.5-0.1,0.5-0.3c0-0.6-2.1-0.5-2.1-1.9
			c0-0.9,0.7-1.4,1.7-1.4c0.6,0,1.5,0.3,1.5,0.9C-422.3,398.3-422.6,398.6-422.8,398.6z"/>
	</g>
</g>
</svg>
