<?xml version="1.0" encoding="utf-8"?>
<!-- Generator: Adobe Illustrator 19.1.0, SVG Export Plug-In . SVG Version: 6.00 Build 0)  -->
<svg version="1.1" id="Layer_1" xmlns="http://www.w3.org/2000/svg" xmlns:xlink="http://www.w3.org/1999/xlink" x="0px" y="0px"
	 viewBox="-535 355.9 128 91.2" style="enable-background:new -535 355.9 128 91.2;" xml:space="preserve">
<style type="text/css">
	.st0{fill:#4A4E59;}
	.st1{fill:#EFF0F1;}
</style>
<g>
	<g>
		<g>
			<path class="st0" d="M-524.3,437.3c-0.5-0.8-1.5-1.2-2.5-1.2c-1.6,0-2.9,1.6-2.9,3.7c0,1.1,0.3,2,0.8,2.7c0.6,0.7,1.2,1,2.1,1
				c1,0,2-0.4,2.5-1.2l1.5,1.2c-1,1.4-2.5,2.3-4.2,2.3c-2.9,0.1-5.4-2.8-5.3-6.1c0-3.3,2.4-6.1,5.3-6.1c1.7,0,3.2,0.9,4.2,2.3
				L-524.3,437.3z"/>
		</g>
	</g>
	<g>
		<g>
			<path class="st0" d="M-509.9,439.8c0,3.3-2.5,6.1-5.6,6.1c-3,0.1-5.6-2.8-5.6-6.1c0-3.3,2.5-6.2,5.6-6.1
				C-512.5,433.7-509.9,436.5-509.9,439.8z M-518.4,439.8c0,1,0.3,1.9,0.8,2.7c0.6,0.7,1.3,1.1,2.1,1.1c0.8,0,1.5-0.4,2.1-1.1
				c0.6-0.7,0.9-1.6,0.9-2.7c0-1-0.3-1.9-0.9-2.6c-0.6-0.7-1.3-1.1-2.1-1.1C-517.1,436.1-518.4,437.8-518.4,439.8z"/>
		</g>
	</g>
	<g>
		<g>
			<path class="st0" d="M-499,445.7v-6.3c0-2.1-1.1-3.2-2.5-3.2s-2.7,1.3-2.7,2.7v6.8h-2.5v-11.6h0.8l0.9,1.7
				c0.8-1.1,2.4-1.9,3.8-1.9c2.6,0,4.6,2.2,4.6,5.6v6.3h-2.4V445.7z"/>
		</g>
	</g>
	<g>
		<g>
			<path class="st0" d="M-493.4,436.5V434h2.2v-4.2h2.5v4.2h3.7v2.5h-3.7v4.9c0,1.7,0.7,2.4,1.8,2.4c0.4,0,0.9-0.1,1.4-0.4l0.3,1.5
				c-0.7,0.6-1.5,0.9-2.3,0.9c-2.1,0-3.7-1.8-3.7-4.6v-4.8h-2.2V436.5z"/>
		</g>
	</g>
	<g>
		<g>
			<path class="st0" d="M-472.6,445.7l-0.9-1.8c-1,1.3-2.3,2-3.7,2c-2.7,0-5-2.7-5-6.1c0-3.3,2.3-6.2,5-6.1c1.5,0,2.8,0.7,3.7,2
				l0.9-1.8h0.8v11.8H-472.6z M-476.9,436.1c-1.5,0-2.7,1.7-2.7,3.7c0,1,0.3,1.9,0.8,2.7c0.5,0.7,1.2,1.1,1.9,1.1
				c1.5,0,2.7-1.7,2.7-3.7C-474.2,437.8-475.4,436.1-476.9,436.1z"/>
		</g>
	</g>
	<g>
		<g>
			<path class="st0" d="M-465.2,429.6c0,0.8-0.7,1.4-1.5,1.4s-1.5-0.6-1.5-1.4s0.7-1.5,1.5-1.5
				C-465.8,428.1-465.2,428.7-465.2,429.6z M-467.9,434h2.5v11.7h-2.5V434z"/>
		</g>
	</g>
	<g>
		<g>
			<path class="st0" d="M-453.9,445.7v-6.3c0-2.1-1.1-3.2-2.5-3.2s-2.7,1.3-2.7,2.7v6.8h-2.5v-11.6h0.8l0.9,1.7
				c0.8-1.1,2.4-1.9,3.8-1.9c2.6,0,4.6,2.2,4.6,5.6v6.3h-2.4V445.7z"/>
		</g>
	</g>
	<g>
		<g>
			<path class="st0" d="M-444.8,442.6c0.6,0.7,1.5,1,2.6,1s2-0.5,3-1.3l1.3,1.6c-1,1.2-2.7,2.1-4.5,2.1c-3.7,0.1-6-2.7-6-6
				c-0.1-3.3,2.4-6.2,5.7-6.1c2.9,0,5.2,2.3,5.2,5.3c0,0.4,0,0.7-0.1,1h-8.2C-445.7,441-445.4,441.9-444.8,442.6z M-440.3,438.1
				c0-1.2-0.9-2-2.4-2c-1.2,0-2.2,0.6-2.7,2H-440.3z"/>
		</g>
	</g>
	<g>
		<g>
			<path class="st0" d="M-431.6,438.9v6.8h-2.5v-11.6h0.8l0.9,1.7c0.8-1.1,2.2-1.9,3.6-1.9c0.2,0,0.5,0,0.7,0.1v4.8h-0.8l-1.2-2.3
				C-430.9,436.8-431.6,437.8-431.6,438.9z"/>
		</g>
	</g>
	<g>
		<g>
			<path class="st0" d="M-421.8,445.9c-1.3,0-2.3-0.4-3.7-1.3l0.3-2.1c1.6,0.8,2.6,1.2,3.5,1.2c1,0,1.9-0.5,1.9-1.2
				c0-0.4-0.2-0.7-0.5-0.9c-0.3-0.2-1-0.5-2.1-0.9c-2.2-0.8-3.2-1.7-3.2-3.4c0-2,1.9-3.5,4.3-3.5c1.4,0,2.5,0.4,3.9,1.5l-0.7,1.8
				c-1.3-0.7-2.2-1.1-3.1-1.1c-1.1,0-1.8,0.5-1.8,1.2c0,0.4,0.4,0.8,1.1,1.1s1.4,0.6,2.1,0.9c1.4,0.5,2.7,1.4,2.7,3.1
				C-417.2,444.5-419.4,445.9-421.8,445.9z"/>
		</g>
	</g>
</g>
<g>
	<polygon class="st1" points="-407,370.5 -447.3,370.5 -455.8,375.4 -456.4,375.4 -460.1,375.4 -460.1,355.8 -500.4,355.8 
		-534.4,375.4 -535,375.4 -535,416.3 -495.7,416.3 -495.1,416.3 -478.1,426.1 -437.8,426.1 -437.8,416.3 -415.5,416.3 -415.5,416 
		-407,411.1 	"/>
</g>
<g>
	<g>
		<path class="st0" d="M-511,393.4v-7.8h3.6v21.3h-3.6V397h-7.1v9.9h-3.5v-21.3h3.5v7.8H-511z"/>
	</g>
</g>
<g>
	<g>
		<path class="st0" d="M-473.2,387.1c0,1.1-1,2.1-2.1,2.1s-2.1-0.9-2.1-2.1s1-2.1,2.1-2.1C-474.1,384.9-473.2,385.9-473.2,387.1z
			 M-477,392h3.5v14.8h-3.5V392z"/>
	</g>
</g>
<g>
	<g>
		<path class="st0" d="M-428.2,392.7c0,3.9-3.3,7.1-7.1,7.1h-4.3v7.1h-3.5v-21.3h7.8C-431.4,385.6-428.2,388.8-428.2,392.7z
			 M-432.8,395.2c0.7-0.7,1.1-1.5,1.1-2.5c0-2-1.6-3.6-3.5-3.6h-4.3v7.1h4.3C-434.3,396.2-433.5,395.9-432.8,395.2z"/>
	</g>
</g>
</svg>
