<?xml version="1.0" encoding="utf-8"?>
<!-- Generator: Adobe Illustrator 19.1.0, SVG Export Plug-In . SVG Version: 6.00 Build 0)  -->
<svg version="1.1" id="Layer_1" xmlns="http://www.w3.org/2000/svg" xmlns:xlink="http://www.w3.org/1999/xlink" x="0px" y="0px"
	 viewBox="-574 106.1 250.1 89.9" style="enable-background:new -574 106.1 250.1 89.9;" xml:space="preserve">
<style type="text/css">
	.st0{fill:#EEEEEE;}
	.st1{opacity:0.1;enable-background:new    ;}
	.st2{clip-path:url(#SVGID_2_);fill:#626A82;}
	.st3{opacity:0.2;enable-background:new    ;}
	.st4{clip-path:url(#SVGID_4_);fill:#59C183;}
	.st5{fill:#404C59;}
	.st6{font-family:'CircularStd-Book';}
	.st7{font-size:30px;}
</style>
<g>
	<circle class="st0" cx="-529" cy="151.1" r="45"/>
	<g class="st1">
		<g>
			<defs>
				<circle id="SVGID_1_" cx="-529" cy="151.1" r="45"/>
			</defs>
			<clipPath id="SVGID_2_">
				<use xlink:href="#SVGID_1_"  style="overflow:visible;"/>
			</clipPath>
			<circle class="st2" cx="-472.3" cy="318.9" r="155.8"/>
		</g>
	</g>
	<g class="st3">
		<g>
			<defs>
				<circle id="SVGID_3_" cx="-529" cy="151.1" r="45"/>
			</defs>
			<clipPath id="SVGID_4_">
				<use xlink:href="#SVGID_3_"  style="overflow:visible;"/>
			</clipPath>
			<circle class="st4" cx="-619" cy="227" r="119"/>
		</g>
	</g>
	<g>
		<text transform="matrix(1 0 0 1 -553.2504 163.0365)" class="st5 st6 st7">HIP</text>
	</g>
</g>
<g>
	<path class="st0" d="M-455.5,163.5c-1.4,0-2.7-0.2-4-0.7s-2.4-1.2-3.4-2.1c-1-0.9-1.8-2.1-2.3-3.5c-0.6-1.4-0.9-3-0.9-4.7
		c0-1.8,0.3-3.4,0.9-4.7c0.6-1.4,1.4-2.5,2.4-3.5c1-0.9,2.1-1.7,3.4-2.1c1.3-0.5,2.6-0.7,3.9-0.7c1.2,0,2.3,0.2,3.4,0.5
		c1,0.3,1.9,0.8,2.7,1.4c0.8,0.6,1.5,1.3,2,2.1s1,1.8,1.2,2.8l-2.7,1c-0.4-1.6-1.2-2.9-2.3-3.7c-1.1-0.9-2.6-1.3-4.3-1.3
		c-1,0-1.9,0.2-2.8,0.5c-0.9,0.4-1.7,0.9-2.4,1.6c-0.7,0.7-1.3,1.6-1.7,2.6c-0.4,1-0.6,2.3-0.6,3.6s0.2,2.6,0.6,3.6
		c0.4,1,1,1.9,1.7,2.6c0.7,0.7,1.5,1.2,2.4,1.6s1.8,0.5,2.8,0.5c0.9,0,1.7-0.1,2.5-0.4c0.7-0.3,1.4-0.6,2-1.1c0.6-0.4,1-1,1.4-1.6
		c0.4-0.6,0.7-1.3,0.9-2l2.6,1c-0.3,1-0.7,1.9-1.3,2.8c-0.6,0.8-1.2,1.6-2,2.2c-0.8,0.6-1.7,1.1-2.7,1.4
		C-453.1,163.3-454.3,163.5-455.5,163.5z"/>
	<path class="st0" d="M-436.4,148.2c1.1,0,2.1,0.2,3,0.6c0.9,0.4,1.7,0.9,2.3,1.6c0.7,0.7,1.2,1.5,1.5,2.4c0.4,0.9,0.5,1.9,0.5,3
		c0,1.1-0.2,2.1-0.5,3.1c-0.4,0.9-0.9,1.8-1.5,2.4c-0.7,0.7-1.4,1.2-2.3,1.6s-1.9,0.6-3,0.6s-2.1-0.2-3-0.6s-1.7-0.9-2.3-1.6
		c-0.7-0.7-1.2-1.5-1.5-2.4c-0.4-0.9-0.5-2-0.5-3.1c0-1.1,0.2-2.1,0.5-3c0.4-0.9,0.9-1.7,1.5-2.4c0.7-0.7,1.4-1.2,2.3-1.6
		C-438.5,148.4-437.5,148.2-436.4,148.2z M-436.4,161c0.6,0,1.2-0.1,1.7-0.3s1-0.5,1.4-1c0.4-0.4,0.8-1,1-1.6
		c0.2-0.6,0.4-1.4,0.4-2.2c0-0.8-0.1-1.6-0.4-2.2c-0.2-0.6-0.6-1.2-1-1.6c-0.4-0.4-0.9-0.8-1.4-1c-0.5-0.2-1.1-0.3-1.7-0.3
		s-1.2,0.1-1.7,0.3c-0.5,0.2-1,0.6-1.4,1c-0.4,0.4-0.8,1-1,1.6c-0.2,0.6-0.4,1.4-0.4,2.2c0,0.8,0.1,1.6,0.4,2.2
		c0.2,0.6,0.6,1.2,1,1.6c0.4,0.4,0.9,0.8,1.4,1C-437.6,160.9-437,161-436.4,161z"/>
	<path class="st0" d="M-423,163h-2.8v-14.4h2.8v2.1c0.5-0.9,1.2-1.5,2-1.9c0.8-0.4,1.6-0.6,2.5-0.6s1.6,0.1,2.3,0.4
		c0.6,0.3,1.2,0.7,1.6,1.2c0.4,0.5,0.8,1.1,1,1.8c0.2,0.7,0.3,1.5,0.3,2.2v9.1h-2.8v-8.7c0-0.5-0.1-1-0.2-1.4
		c-0.1-0.4-0.3-0.8-0.6-1.2c-0.3-0.4-0.6-0.6-1.1-0.8c-0.4-0.2-1-0.3-1.6-0.3s-1.1,0.1-1.5,0.3s-0.8,0.5-1,0.9
		c-0.3,0.4-0.5,0.8-0.6,1.3s-0.2,1-0.2,1.5L-423,163L-423,163z"/>
	<path class="st0" d="M-405.7,148.6h3.1v2.6h-3.1v7.5c0,0.7,0.1,1.2,0.4,1.5s0.8,0.5,1.6,0.5c0.2,0,0.4,0,0.6,0c0.2,0,0.4,0,0.5-0.1
		v2.4c-0.1,0-0.4,0.1-0.7,0.2c-0.3,0.1-0.8,0.1-1.2,0.1c-1.2,0-2.2-0.4-2.9-1.1c-0.7-0.7-1.1-1.7-1.1-3v-7.9h-2.8v-2.6h0.8
		c0.8,0,1.3-0.2,1.7-0.6c0.3-0.4,0.5-0.9,0.5-1.6v-2.3h2.6L-405.7,148.6L-405.7,148.6z"/>
	<path class="st0" d="M-400.2,159.2c0-0.6,0.1-1.2,0.3-1.7s0.5-0.9,0.9-1.3c0.4-0.4,0.9-0.7,1.4-0.9c0.5-0.2,1.1-0.4,1.7-0.5
		l3.9-0.6c0.4-0.1,0.7-0.2,0.9-0.4c0.2-0.2,0.2-0.4,0.2-0.7c0-0.7-0.2-1.3-0.7-1.8s-1.3-0.8-2.4-0.8c-1,0-1.8,0.3-2.3,0.8
		c-0.5,0.6-0.9,1.2-1,2.1l-2.7-0.6c0.1-0.7,0.3-1.3,0.6-1.9c0.3-0.6,0.8-1.1,1.3-1.5s1.1-0.7,1.8-0.9c0.7-0.2,1.4-0.3,2.2-0.3
		c1.1,0,2,0.1,2.8,0.4c0.8,0.3,1.4,0.7,1.9,1.2s0.8,1,1,1.7c0.2,0.6,0.3,1.3,0.3,2v7.2c0,0.6,0,1.2,0.1,1.5c0,0.4,0.1,0.7,0.1,0.8
		h-2.8c0-0.2-0.1-0.4-0.1-0.7c0-0.3,0-0.7,0-1.2c-0.2,0.3-0.4,0.5-0.6,0.8c-0.3,0.3-0.6,0.5-1,0.8c-0.4,0.2-0.8,0.4-1.3,0.6
		c-0.5,0.1-1.1,0.2-1.7,0.2c-0.7,0-1.4-0.1-2-0.4c-0.6-0.2-1.1-0.6-1.5-0.9c-0.4-0.4-0.7-0.8-1-1.4
		C-400,160.3-400.2,159.7-400.2,159.2z M-394.9,161.1c0.6,0,1.1-0.1,1.6-0.2c0.5-0.1,0.9-0.4,1.3-0.7c0.4-0.3,0.7-0.8,0.9-1.3
		c0.2-0.5,0.3-1.2,0.3-2v-0.7l-4.4,0.7c-0.6,0.1-1.1,0.3-1.5,0.7c-0.4,0.4-0.6,0.8-0.6,1.5c0,0.5,0.2,1,0.6,1.5
		C-396.2,160.9-395.7,161.1-394.9,161.1z"/>
	<path class="st0" d="M-384.7,143.1c0-0.6,0.2-1.1,0.6-1.5c0.4-0.4,0.9-0.6,1.4-0.6c0.6,0,1.1,0.2,1.5,0.6c0.4,0.4,0.6,0.9,0.6,1.5
		c0,0.6-0.2,1-0.6,1.4c-0.4,0.4-0.9,0.6-1.5,0.6c-0.6,0-1-0.2-1.4-0.6C-384.5,144.2-384.7,143.7-384.7,143.1z M-384.1,163v-14.4h2.8
		V163H-384.1z"/>
	<path class="st0" d="M-374.3,163h-2.8v-14.4h2.8v2.1c0.5-0.9,1.2-1.5,2-1.9c0.8-0.4,1.6-0.6,2.5-0.6c0.9,0,1.6,0.1,2.3,0.4
		c0.6,0.3,1.2,0.7,1.6,1.2s0.8,1.1,1,1.8c0.2,0.7,0.3,1.5,0.3,2.2v9.1h-2.8v-8.7c0-0.5-0.1-1-0.2-1.4c-0.1-0.4-0.3-0.8-0.6-1.2
		c-0.3-0.4-0.6-0.6-1.1-0.8c-0.4-0.2-1-0.3-1.6-0.3c-0.6,0-1.1,0.1-1.5,0.3c-0.4,0.2-0.8,0.5-1,0.9c-0.3,0.4-0.5,0.8-0.6,1.3
		c-0.1,0.5-0.2,1-0.2,1.5L-374.3,163L-374.3,163z"/>
	<path class="st0" d="M-348,158.9c-0.2,0.6-0.5,1.2-0.9,1.8s-0.9,1-1.4,1.4c-0.6,0.4-1.2,0.7-1.9,1c-0.7,0.2-1.5,0.4-2.3,0.4
		c-1,0-1.9-0.2-2.8-0.5c-0.9-0.3-1.7-0.8-2.3-1.5c-0.6-0.7-1.2-1.5-1.6-2.4c-0.4-1-0.6-2-0.6-3.3c0-1.1,0.2-2.2,0.6-3.1
		c0.4-0.9,0.9-1.7,1.5-2.4c0.6-0.7,1.4-1.2,2.2-1.6c0.8-0.4,1.7-0.6,2.6-0.6c1.1,0,2.1,0.2,3,0.6c0.9,0.4,1.6,0.9,2.2,1.5
		c0.6,0.7,1,1.5,1.3,2.4c0.3,0.9,0.5,2,0.5,3.1c0,0.2,0,0.4,0,0.5c0,0.2,0,0.3,0,0.4h-10.9c0,0.6,0.1,1.2,0.4,1.8
		c0.3,0.6,0.5,1,0.9,1.4s0.9,0.7,1.4,0.9c0.5,0.2,1.1,0.3,1.7,0.3c1.2,0,2.1-0.3,2.7-0.8c0.6-0.6,1.1-1.2,1.4-2.1L-348,158.9z
		 M-350.9,154.3c0-1-0.4-1.9-1.1-2.6s-1.6-1.1-2.9-1.1c-0.6,0-1.1,0.1-1.6,0.3c-0.5,0.2-0.9,0.5-1.2,0.8c-0.3,0.4-0.6,0.7-0.8,1.2
		s-0.3,0.9-0.3,1.3h7.9V154.3z"/>
	<path class="st0" d="M-336.7,151.5c-0.4-0.1-0.8-0.1-1.2-0.1c-1.2,0-2.1,0.3-2.9,1c-0.7,0.7-1.1,1.8-1.1,3.4v7.2h-2.8v-14.4h2.8
		v2.5c0.3-0.6,0.6-1,0.9-1.4c0.3-0.3,0.7-0.6,1.1-0.8c0.4-0.2,0.8-0.4,1.2-0.4c0.4-0.1,0.8-0.1,1.1-0.1c0.2,0,0.4,0,0.6,0
		s0.3,0,0.4,0.1v3H-336.7z"/>
	<path class="st0" d="M-332.6,158.4c0.1,0.8,0.4,1.4,1,1.9s1.4,0.8,2.4,0.8c0.8,0,1.4-0.2,1.8-0.6c0.4-0.4,0.6-0.8,0.6-1.4
		c0-0.5-0.2-0.9-0.5-1.2c-0.3-0.3-0.8-0.6-1.4-0.7l-2.5-0.5c-1.1-0.2-2-0.7-2.7-1.4c-0.6-0.7-0.9-1.6-0.9-2.6c0-0.6,0.1-1.2,0.4-1.8
		c0.3-0.6,0.6-1,1.1-1.5c0.5-0.4,1-0.8,1.6-1c0.6-0.2,1.3-0.4,2-0.4c1,0,1.8,0.1,2.5,0.4s1.2,0.6,1.6,1c0.4,0.4,0.7,0.8,0.9,1.3
		c0.2,0.4,0.4,0.8,0.4,1.1l-2.5,0.9c0-0.2-0.1-0.4-0.2-0.7c-0.1-0.3-0.3-0.5-0.5-0.8c-0.2-0.2-0.5-0.5-0.9-0.6
		c-0.4-0.2-0.9-0.3-1.4-0.3c-0.7,0-1.3,0.2-1.7,0.6c-0.4,0.4-0.7,0.8-0.7,1.3c0,0.9,0.5,1.5,1.6,1.7l2.3,0.5c1.3,0.3,2.3,0.8,3,1.5
		c0.7,0.8,1,1.7,1,2.8c0,0.5-0.1,1-0.3,1.6c-0.2,0.5-0.5,1-1,1.4c-0.4,0.4-1,0.8-1.6,1.1c-0.6,0.3-1.4,0.4-2.3,0.4
		c-1,0-1.9-0.1-2.6-0.4c-0.7-0.3-1.3-0.6-1.8-1c-0.5-0.4-0.8-0.9-1.1-1.4c-0.3-0.5-0.4-0.9-0.5-1.4L-332.6,158.4z"/>
</g>
</svg>
