<?xml version="1.0" encoding="utf-8"?>
<!-- Generator: Adobe Illustrator 19.1.0, SVG Export Plug-In . SVG Version: 6.00 Build 0)  -->
<svg version="1.1" id="Layer_1" xmlns="http://www.w3.org/2000/svg" xmlns:xlink="http://www.w3.org/1999/xlink" x="0px" y="0px"
	 viewBox="-474 356.1 128 90.1" style="enable-background:new -474 356.1 128 90.1;" xml:space="preserve">
<style type="text/css">
	.st0{fill:#FFFFFF;}
	.st1{fill:#9BC4B1;}
	.st2{fill:#4A4E59;}
	.st3{font-family:'BaseNine';}
	.st4{font-size:36px;}
	.st5{letter-spacing:-3;}
	.st6{font-family:'Karla-Bold';}
	.st7{font-size:18px;}
</style>
<g>
	<path class="st0" d="M-464,445.7c-5.2,0-9.5-4.3-9.5-9.5v-70.1c0-5.2,4.3-9.5,9.5-9.5h108c5.2,0,9.5,4.3,9.5,9.5v70.1
		c0,5.2-4.3,9.5-9.5,9.5H-464z"/>
	<path class="st1" d="M-356,357.1c5,0,9,4,9,9v70.1c0,5-4,9-9,9h-108c-5,0-9-4-9-9v-70.1c0-5,4-9,9-9H-356 M-356,356.1h-108
		c-5.5,0-10,4.5-10,10v70.1c0,5.5,4.5,10,10,10h108c5.5,0,10-4.5,10-10v-70.1C-346,360.6-350.5,356.1-356,356.1L-356,356.1z"/>
</g>
<text transform="matrix(1 0 0 1 -436.4265 401.1728)" class="st2 st3 st4 st5">hip</text>
<text transform="matrix(1 0 0 1 -464.7492 429.1904)" class="st1 st6 st7">CONTAINERS</text>
</svg>
