<?xml version="1.0" encoding="utf-8"?>
<!-- Generator: Adobe Illustrator 19.1.0, SVG Export Plug-In . SVG Version: 6.00 Build 0)  -->
<svg version="1.1" id="Layer_1" xmlns="http://www.w3.org/2000/svg" xmlns:xlink="http://www.w3.org/1999/xlink" x="0px" y="0px"
	 viewBox="-474 356.1 128 90.1" style="enable-background:new -474 356.1 128 90.1;" xml:space="preserve">
<style type="text/css">
	.st0{fill:#FFFFFF;}
	.st1{fill:#9BC4B1;}
	.st2{fill:#4A4E59;}
</style>
<polygon class="st0" points="-346,370.8 -386.3,370.8 -394.8,375.7 -395.4,375.7 -399.1,375.7 -399.1,356.1 -439.4,356.1 
	-473.4,375.7 -474,375.7 -474,416.6 -434.7,416.6 -434.1,416.6 -417.1,426.4 -376.8,426.4 -376.8,416.6 -354.5,416.6 -354.5,416.3 
	-346,411.4 "/>
<g>
	<g>
		<path class="st1" d="M-450,393.7v-7.8h3.6v21.3h-3.6v-9.9h-7.1v9.9h-3.5v-21.3h3.5v7.8H-450z"/>
	</g>
</g>
<g>
	<g>
		<path class="st1" d="M-412.2,387.4c0,1.1-1,2.1-2.1,2.1c-1.1,0-2.1-0.9-2.1-2.1c0-1.2,1-2.1,2.1-2.1
			C-413.1,385.2-412.2,386.2-412.2,387.4z M-416,392.3h3.5v14.8h-3.5V392.3z"/>
	</g>
</g>
<g>
	<g>
		<path class="st1" d="M-367.2,393c0,3.9-3.3,7.1-7.1,7.1h-4.3v7.1h-3.5v-21.3h7.8C-370.4,385.9-367.2,389.1-367.2,393z
			 M-371.8,395.5c0.7-0.7,1.1-1.5,1.1-2.5c0-2-1.6-3.6-3.5-3.6h-4.3v7.1h4.3C-373.3,396.5-372.5,396.2-371.8,395.5z"/>
	</g>
</g>
<g>
	<g>
		<path class="st2" d="M-463.3,437.6c-0.5-0.8-1.5-1.2-2.5-1.2c-1.6,0-2.9,1.6-2.9,3.7c0,1.1,0.3,2,0.8,2.7c0.6,0.7,1.2,1,2.1,1
			c1,0,2-0.4,2.5-1.2l1.5,1.2c-1,1.4-2.5,2.3-4.2,2.3c-2.9,0.1-5.4-2.8-5.3-6.1c0-3.3,2.4-6.1,5.3-6.1c1.7,0,3.2,0.9,4.2,2.3
			L-463.3,437.6z"/>
	</g>
	<g>
		<path class="st2" d="M-448.9,440.1c0,3.3-2.5,6.1-5.6,6.1c-3,0.1-5.6-2.8-5.6-6.1c0-3.3,2.5-6.2,5.6-6.1
			C-451.5,434-448.9,436.8-448.9,440.1z M-457.4,440.1c0,1,0.3,1.9,0.8,2.7c0.6,0.7,1.3,1.1,2.1,1.1c0.8,0,1.5-0.4,2.1-1.1
			c0.6-0.7,0.9-1.6,0.9-2.7c0-1-0.3-1.9-0.9-2.6c-0.6-0.7-1.3-1.1-2.1-1.1C-456.1,436.4-457.4,438.1-457.4,440.1z"/>
	</g>
	<g>
		<path class="st2" d="M-438,446v-6.3c0-2.1-1.1-3.2-2.5-3.2c-1.4,0-2.7,1.3-2.7,2.7v6.8h-2.5v-11.6h0.8l0.9,1.7
			c0.8-1.1,2.4-1.9,3.8-1.9c2.6,0,4.6,2.2,4.6,5.6v6.3H-438z"/>
	</g>
	<g>
		<path class="st2" d="M-432.4,436.8v-2.5h2.2v-4.2h2.5v4.2h3.7v2.5h-3.7v4.9c0,1.7,0.7,2.4,1.8,2.4c0.4,0,0.9-0.1,1.4-0.4l0.3,1.5
			c-0.7,0.6-1.5,0.9-2.3,0.9c-2.1,0-3.7-1.8-3.7-4.6v-4.8H-432.4z"/>
	</g>
	<g>
		<path class="st2" d="M-411.6,446l-0.9-1.8c-1,1.3-2.3,2-3.7,2c-2.7,0-5-2.7-5-6.1c0-3.3,2.3-6.2,5-6.1c1.5,0,2.8,0.7,3.7,2
			l0.9-1.8h0.8V446H-411.6z M-415.9,436.4c-1.5,0-2.7,1.7-2.7,3.7c0,1,0.3,1.9,0.8,2.7c0.5,0.7,1.2,1.1,1.9,1.1
			c1.5,0,2.7-1.7,2.7-3.7C-413.2,438.1-414.4,436.4-415.9,436.4z"/>
	</g>
	<g>
		<path class="st2" d="M-404.2,429.9c0,0.8-0.7,1.4-1.5,1.4c-0.8,0-1.5-0.6-1.5-1.4c0-0.8,0.7-1.5,1.5-1.5
			C-404.8,428.4-404.2,429-404.2,429.9z M-406.9,434.3h2.5V446h-2.5V434.3z"/>
	</g>
	<g>
		<path class="st2" d="M-392.9,446v-6.3c0-2.1-1.1-3.2-2.5-3.2c-1.4,0-2.7,1.3-2.7,2.7v6.8h-2.5v-11.6h0.8l0.9,1.7
			c0.8-1.1,2.4-1.9,3.8-1.9c2.6,0,4.6,2.2,4.6,5.6v6.3H-392.9z"/>
	</g>
	<g>
		<path class="st2" d="M-383.8,442.9c0.6,0.7,1.5,1,2.6,1c1.1,0,2-0.5,3-1.3l1.3,1.6c-1,1.2-2.7,2.1-4.5,2.1c-3.7,0.1-6-2.7-6-6
			c-0.1-3.3,2.4-6.2,5.7-6.1c2.9,0,5.2,2.3,5.2,5.3c0,0.4,0,0.7-0.1,1h-8.2C-384.7,441.3-384.4,442.2-383.8,442.9z M-379.3,438.4
			c0-1.2-0.9-2-2.4-2c-1.2,0-2.2,0.6-2.7,2H-379.3z"/>
	</g>
	<g>
		<path class="st2" d="M-370.6,439.2v6.8h-2.5v-11.6h0.8l0.9,1.7c0.8-1.1,2.2-1.9,3.6-1.9c0.2,0,0.5,0,0.7,0.1v4.8h-0.8l-1.2-2.3
			C-369.9,437.1-370.6,438.1-370.6,439.2z"/>
	</g>
	<g>
		<path class="st2" d="M-360.8,446.2c-1.3,0-2.3-0.4-3.7-1.3l0.3-2.1c1.6,0.8,2.6,1.2,3.5,1.2c1,0,1.9-0.5,1.9-1.2
			c0-0.4-0.2-0.7-0.5-0.9c-0.3-0.2-1-0.5-2.1-0.9c-2.2-0.8-3.2-1.7-3.2-3.4c0-2,1.9-3.5,4.3-3.5c1.4,0,2.5,0.4,3.9,1.5l-0.7,1.8
			c-1.3-0.7-2.2-1.1-3.1-1.1c-1.1,0-1.8,0.5-1.8,1.2c0,0.4,0.4,0.8,1.1,1.1s1.4,0.6,2.1,0.9c1.4,0.5,2.7,1.4,2.7,3.1
			C-356.2,444.8-358.4,446.2-360.8,446.2z"/>
	</g>
</g>
<path class="st2" d="M-346,370.8h-40.3l-8.5,4.9h-0.6h-3.7v-19.6h-40.3l-34,19.6h-0.6v40.9h39.3h0.6l17,9.8h40.3v-9.8h22.3v-0.3
	l8.5-4.9V370.8z M-385.9,372.4h36.1l-5.7,3.3h-36.1L-385.9,372.4z M-395.4,415h-37.7v-37.7h37.7V415z M-439,357.7h36.1l-31.3,18.1
	h-0.6h-35.5L-439,357.7z M-472.4,415v-37.7h37.7V415H-472.4z M-430.9,416.6h35.5h0.6l14.3,8.2h-36.1L-430.9,416.6z M-356.1,415
	h-37.7v-37.7h37.7V415z"/>
<polygon class="st1" points="-385.9,372.4 -349.8,372.4 -355.6,375.7 -391.7,375.7 "/>
<polygon class="st1" points="-439,357.7 -402.9,357.7 -434.1,375.7 -434.7,375.7 -470.2,375.7 "/>
<polygon class="st1" points="-430.9,416.6 -395.4,416.6 -394.8,416.6 -380.6,424.9 -416.7,424.9 "/>
</svg>
