<?xml version="1.0" encoding="utf-8"?>
<!-- Generator: Adobe Illustrator 19.1.0, SVG Export Plug-In . SVG Version: 6.00 Build 0)  -->
<svg version="1.1" id="Layer_1" xmlns="http://www.w3.org/2000/svg" xmlns:xlink="http://www.w3.org/1999/xlink" x="0px" y="0px"
	 viewBox="0 0 250.1 89.9" style="enable-background:new 0 0 250.1 89.9;" xml:space="preserve">
<style type="text/css">
	.st0{fill:#FFFFFF;}
	.st1{opacity:0.1;}
	.st2{clip-path:url(#SVGID_2_);fill:#626A82;}
	.st3{opacity:0.2;}
	.st4{clip-path:url(#SVGID_4_);fill:#59C183;}
	.st5{fill:#404C59;}
	.st6{font-family:'CircularStd-Book';}
	.st7{font-size:30px;}
</style>
<g>
	<circle class="st0" cx="45" cy="45" r="45"/>
	<g class="st1">
		<defs>
			<circle id="SVGID_1_" class="st1" cx="45" cy="45" r="45"/>
		</defs>
		<clipPath id="SVGID_2_">
			<use xlink:href="#SVGID_1_"  style="overflow:visible;"/>
		</clipPath>
		<circle class="st2" cx="101.7" cy="212.8" r="155.8"/>
	</g>
	<g class="st3">
		<defs>
			<circle id="SVGID_3_" class="st3" cx="45" cy="45" r="45"/>
		</defs>
		<clipPath id="SVGID_4_">
			<use xlink:href="#SVGID_3_"  style="overflow:visible;"/>
		</clipPath>
		<circle class="st4" cx="-45" cy="120.9" r="119"/>
	</g>
	<g>
		<text transform="matrix(1 0 0 1 20.7496 56.9365)" class="st5 st6 st7">HIP</text>
	</g>
</g>
<g>
	<path class="st0" d="M118.5,57.4c-1.4,0-2.7-0.2-4-0.7c-1.3-0.5-2.4-1.2-3.4-2.1c-1-0.9-1.8-2.1-2.3-3.5c-0.6-1.4-0.9-3-0.9-4.7
		c0-1.8,0.3-3.4,0.9-4.7c0.6-1.4,1.4-2.5,2.4-3.5c1-0.9,2.1-1.7,3.4-2.1c1.3-0.5,2.6-0.7,3.9-0.7c1.2,0,2.3,0.2,3.4,0.5
		c1,0.3,1.9,0.8,2.7,1.4c0.8,0.6,1.5,1.3,2,2.1c0.5,0.8,1,1.8,1.2,2.8l-2.7,1c-0.4-1.6-1.2-2.9-2.3-3.7c-1.1-0.9-2.6-1.3-4.3-1.3
		c-1,0-1.9,0.2-2.8,0.5c-0.9,0.4-1.7,0.9-2.4,1.6c-0.7,0.7-1.3,1.6-1.7,2.6c-0.4,1-0.6,2.3-0.6,3.6s0.2,2.6,0.6,3.6
		c0.4,1,1,1.9,1.7,2.6c0.7,0.7,1.5,1.2,2.4,1.6c0.9,0.4,1.8,0.5,2.8,0.5c0.9,0,1.7-0.1,2.5-0.4c0.7-0.3,1.4-0.6,2-1.1
		c0.6-0.4,1-1,1.4-1.6c0.4-0.6,0.7-1.3,0.9-2l2.6,1c-0.3,1-0.7,1.9-1.3,2.8c-0.6,0.8-1.2,1.6-2,2.2c-0.8,0.6-1.7,1.1-2.7,1.4
		C120.9,57.2,119.7,57.4,118.5,57.4z"/>
	<path class="st0" d="M137.6,42.1c1.1,0,2.1,0.2,3,0.6c0.9,0.4,1.7,0.9,2.3,1.6c0.7,0.7,1.2,1.5,1.5,2.4c0.4,0.9,0.5,1.9,0.5,3
		c0,1.1-0.2,2.1-0.5,3.1c-0.4,0.9-0.9,1.8-1.5,2.4c-0.7,0.7-1.4,1.2-2.3,1.6c-0.9,0.4-1.9,0.6-3,0.6s-2.1-0.2-3-0.6
		c-0.9-0.4-1.7-0.9-2.3-1.6c-0.7-0.7-1.2-1.5-1.5-2.4c-0.4-0.9-0.5-2-0.5-3.1c0-1.1,0.2-2.1,0.5-3c0.4-0.9,0.9-1.7,1.5-2.4
		c0.7-0.7,1.4-1.2,2.3-1.6S136.5,42.1,137.6,42.1z M137.6,54.9c0.6,0,1.2-0.1,1.7-0.3c0.5-0.2,1-0.5,1.4-1c0.4-0.4,0.8-1,1-1.6
		c0.2-0.6,0.4-1.4,0.4-2.2s-0.1-1.6-0.4-2.2c-0.2-0.6-0.6-1.2-1-1.6c-0.4-0.4-0.9-0.8-1.4-1s-1.1-0.3-1.7-0.3s-1.2,0.1-1.7,0.3
		s-1,0.6-1.4,1c-0.4,0.4-0.8,1-1,1.6c-0.2,0.6-0.4,1.4-0.4,2.2s0.1,1.6,0.4,2.2c0.2,0.6,0.6,1.2,1,1.6c0.4,0.4,0.9,0.8,1.4,1
		C136.4,54.8,137,54.9,137.6,54.9z"/>
	<path class="st0" d="M151,56.9h-2.8V42.5h2.8v2.1c0.5-0.9,1.2-1.5,2-1.9c0.8-0.4,1.6-0.6,2.5-0.6c0.9,0,1.6,0.1,2.3,0.4
		c0.6,0.3,1.2,0.7,1.6,1.2c0.4,0.5,0.8,1.1,1,1.8c0.2,0.7,0.3,1.5,0.3,2.2v9.1h-2.8v-8.7c0-0.5-0.1-1-0.2-1.4
		c-0.1-0.4-0.3-0.8-0.6-1.2s-0.6-0.6-1.1-0.8c-0.4-0.2-1-0.3-1.6-0.3c-0.6,0-1.1,0.1-1.5,0.3s-0.8,0.5-1,0.9
		c-0.3,0.4-0.5,0.8-0.6,1.3c-0.1,0.5-0.2,1-0.2,1.5V56.9z"/>
	<path class="st0" d="M168.3,42.5h3.1v2.6h-3.1v7.5c0,0.7,0.1,1.2,0.4,1.5c0.3,0.3,0.8,0.5,1.6,0.5c0.2,0,0.4,0,0.6,0
		c0.2,0,0.4,0,0.5-0.1v2.4c-0.1,0-0.4,0.1-0.7,0.2c-0.3,0.1-0.8,0.1-1.2,0.1c-1.2,0-2.2-0.4-2.9-1.1c-0.7-0.7-1.1-1.7-1.1-3v-7.9
		h-2.8v-2.6h0.8c0.8,0,1.3-0.2,1.7-0.6c0.3-0.4,0.5-0.9,0.5-1.6v-2.3h2.6V42.5z"/>
	<path class="st0" d="M173.8,53.1c0-0.6,0.1-1.2,0.3-1.7c0.2-0.5,0.5-0.9,0.9-1.3c0.4-0.4,0.9-0.7,1.4-0.9c0.5-0.2,1.1-0.4,1.7-0.5
		l3.9-0.6c0.4-0.1,0.7-0.2,0.9-0.4s0.2-0.4,0.2-0.7c0-0.7-0.2-1.3-0.7-1.8c-0.5-0.5-1.3-0.8-2.4-0.8c-1,0-1.8,0.3-2.3,0.8
		c-0.5,0.6-0.9,1.2-1,2.1l-2.7-0.6c0.1-0.7,0.3-1.3,0.6-1.9s0.8-1.1,1.3-1.5c0.5-0.4,1.1-0.7,1.8-0.9s1.4-0.3,2.2-0.3
		c1.1,0,2,0.1,2.8,0.4c0.8,0.3,1.4,0.7,1.9,1.2s0.8,1,1,1.7c0.2,0.6,0.3,1.3,0.3,2v7.2c0,0.6,0,1.2,0.1,1.5c0,0.4,0.1,0.7,0.1,0.8
		h-2.8c0-0.2-0.1-0.4-0.1-0.7c0-0.3,0-0.7,0-1.2c-0.2,0.3-0.4,0.5-0.6,0.8c-0.3,0.3-0.6,0.5-1,0.8c-0.4,0.2-0.8,0.4-1.3,0.6
		c-0.5,0.1-1.1,0.2-1.7,0.2c-0.7,0-1.4-0.1-2-0.4c-0.6-0.2-1.1-0.6-1.5-0.9c-0.4-0.4-0.7-0.8-1-1.4C174,54.2,173.8,53.6,173.8,53.1z
		 M179.1,55c0.6,0,1.1-0.1,1.6-0.2c0.5-0.1,0.9-0.4,1.3-0.7c0.4-0.3,0.7-0.8,0.9-1.3c0.2-0.5,0.3-1.2,0.3-2v-0.7l-4.4,0.7
		c-0.6,0.1-1.1,0.3-1.5,0.7c-0.4,0.4-0.6,0.8-0.6,1.5c0,0.5,0.2,1,0.6,1.5C177.8,54.8,178.3,55,179.1,55z"/>
	<path class="st0" d="M189.3,37c0-0.6,0.2-1.1,0.6-1.5c0.4-0.4,0.9-0.6,1.4-0.6c0.6,0,1.1,0.2,1.5,0.6c0.4,0.4,0.6,0.9,0.6,1.5
		c0,0.6-0.2,1-0.6,1.4c-0.4,0.4-0.9,0.6-1.5,0.6c-0.6,0-1-0.2-1.4-0.6C189.5,38.1,189.3,37.6,189.3,37z M189.9,56.9V42.5h2.8v14.4
		H189.9z"/>
	<path class="st0" d="M199.7,56.9h-2.8V42.5h2.8v2.1c0.5-0.9,1.2-1.5,2-1.9c0.8-0.4,1.6-0.6,2.5-0.6c0.9,0,1.6,0.1,2.3,0.4
		c0.6,0.3,1.2,0.7,1.6,1.2c0.4,0.5,0.8,1.1,1,1.8c0.2,0.7,0.3,1.5,0.3,2.2v9.1h-2.8v-8.7c0-0.5-0.1-1-0.2-1.4
		c-0.1-0.4-0.3-0.8-0.6-1.2s-0.6-0.6-1.1-0.8c-0.4-0.2-1-0.3-1.6-0.3c-0.6,0-1.1,0.1-1.5,0.3s-0.8,0.5-1,0.9
		c-0.3,0.4-0.5,0.8-0.6,1.3c-0.1,0.5-0.2,1-0.2,1.5V56.9z"/>
	<path class="st0" d="M226,52.8c-0.2,0.6-0.5,1.2-0.9,1.8c-0.4,0.6-0.9,1-1.4,1.4c-0.6,0.4-1.2,0.7-1.9,1c-0.7,0.2-1.5,0.4-2.3,0.4
		c-1,0-1.9-0.2-2.8-0.5c-0.9-0.3-1.7-0.8-2.3-1.5s-1.2-1.5-1.6-2.4c-0.4-1-0.6-2-0.6-3.3c0-1.1,0.2-2.2,0.6-3.1
		c0.4-0.9,0.9-1.7,1.5-2.4c0.6-0.7,1.4-1.2,2.2-1.6c0.8-0.4,1.7-0.6,2.6-0.6c1.1,0,2.1,0.2,3,0.6c0.9,0.4,1.6,0.9,2.2,1.5
		c0.6,0.7,1,1.5,1.3,2.4c0.3,0.9,0.5,2,0.5,3.1c0,0.2,0,0.4,0,0.5c0,0.2,0,0.3,0,0.4h-10.9c0,0.6,0.1,1.2,0.4,1.8s0.5,1,0.9,1.4
		c0.4,0.4,0.9,0.7,1.4,0.9s1.1,0.3,1.7,0.3c1.2,0,2.1-0.3,2.7-0.8c0.6-0.6,1.1-1.2,1.4-2.1L226,52.8z M223.1,48.2
		c0-1-0.4-1.9-1.1-2.6c-0.7-0.7-1.6-1.1-2.9-1.1c-0.6,0-1.1,0.1-1.6,0.3s-0.9,0.5-1.2,0.8c-0.3,0.4-0.6,0.7-0.8,1.2
		s-0.3,0.9-0.3,1.3H223.1z"/>
	<path class="st0" d="M237.3,45.4c-0.4-0.1-0.8-0.1-1.2-0.1c-1.2,0-2.1,0.3-2.9,1c-0.7,0.7-1.1,1.8-1.1,3.4v7.2h-2.8V42.5h2.8V45
		c0.3-0.6,0.6-1,0.9-1.4c0.3-0.3,0.7-0.6,1.1-0.8c0.4-0.2,0.8-0.4,1.2-0.4c0.4-0.1,0.8-0.1,1.1-0.1c0.2,0,0.4,0,0.6,0
		c0.2,0,0.3,0,0.4,0.1V45.4z"/>
	<path class="st0" d="M241.4,52.3c0.1,0.8,0.4,1.4,1,1.9c0.6,0.5,1.4,0.8,2.4,0.8c0.8,0,1.4-0.2,1.8-0.6s0.6-0.8,0.6-1.4
		c0-0.5-0.2-0.9-0.5-1.2c-0.3-0.3-0.8-0.6-1.4-0.7l-2.5-0.5c-1.1-0.2-2-0.7-2.7-1.4c-0.6-0.7-0.9-1.6-0.9-2.6c0-0.6,0.1-1.2,0.4-1.8
		s0.6-1,1.1-1.5c0.5-0.4,1-0.8,1.6-1c0.6-0.2,1.3-0.4,2-0.4c1,0,1.8,0.1,2.5,0.4c0.7,0.3,1.2,0.6,1.6,1c0.4,0.4,0.7,0.8,0.9,1.3
		c0.2,0.4,0.4,0.8,0.4,1.1l-2.5,0.9c0-0.2-0.1-0.4-0.2-0.7s-0.3-0.5-0.5-0.8c-0.2-0.2-0.5-0.5-0.9-0.6c-0.4-0.2-0.9-0.3-1.4-0.3
		c-0.7,0-1.3,0.2-1.7,0.6c-0.4,0.4-0.7,0.8-0.7,1.3c0,0.9,0.5,1.5,1.6,1.7l2.3,0.5c1.3,0.3,2.3,0.8,3,1.5c0.7,0.8,1,1.7,1,2.8
		c0,0.5-0.1,1-0.3,1.6c-0.2,0.5-0.5,1-1,1.4c-0.4,0.4-1,0.8-1.6,1.1s-1.4,0.4-2.3,0.4c-1,0-1.9-0.1-2.6-0.4c-0.7-0.3-1.3-0.6-1.8-1
		c-0.5-0.4-0.8-0.9-1.1-1.4c-0.3-0.5-0.4-0.9-0.5-1.4L241.4,52.3z"/>
</g>
</svg>
