<?xml version="1.0" encoding="utf-8"?>
<!-- Generator: Adobe Illustrator 19.1.0, SVG Export Plug-In . SVG Version: 6.00 Build 0)  -->
<svg version="1.1" id="Layer_1" xmlns="http://www.w3.org/2000/svg" xmlns:xlink="http://www.w3.org/1999/xlink" x="0px" y="0px"
	 viewBox="0 0 153.5 110" style="enable-background:new 0 0 153.5 110;" xml:space="preserve">
<style type="text/css">
	.st0{fill:#FFFFFF;stroke:#13164C;stroke-linejoin:bevel;stroke-miterlimit:10;}
	.st1{fill:none;stroke:#13164C;stroke-linejoin:bevel;stroke-miterlimit:10;}
	.st2{opacity:0.3;fill:none;stroke:#13164C;stroke-width:0.5;stroke-linejoin:bevel;stroke-miterlimit:10;}
</style>
<g>
	<polyline class="st0" points="51.1,19.8 53.4,18.5 53.4,15.4 48.9,15.4 46.6,16.7 	"/>
	<polygon class="st0" points="40.7,85 75.3,65 75.3,49 61.5,41 26.8,61 26.8,77 	"/>
	<polygon class="st0" points="40.5,69 75.2,49 61.3,41 26.7,61 	"/>
	<polygon class="st0" points="46.7,60.6 58.6,53.7 51.3,49.4 39.4,56.4 	"/>
	<polygon class="st0" points="75.2,49 75.2,65 40.5,85 40.5,69 	"/>
	<polygon class="st0" points="55.9,62.6 55.9,76.2 43.5,83.4 43.5,69.8 	"/>
	<line class="st0" x1="43.5" y1="74.2" x2="55.9" y2="67"/>
	<polygon class="st0" points="33.8,68.3 33.8,81 29.3,78.4 29.3,65.7 	"/>
	<line class="st1" x1="29.3" y1="75.3" x2="33.8" y2="72.7"/>
	<line class="st1" x1="47.4" y1="81.2" x2="47.4" y2="72"/>
	<line class="st1" x1="52" y1="69.3" x2="52" y2="78.5"/>
	<line class="st1" x1="48.2" y1="64.6" x2="50.9" y2="33.3"/>
	<line class="st1" x1="34.5" y1="56.6" x2="50.9" y2="33.3"/>
	<line class="st1" x1="53.8" y1="45.4" x2="50.9" y2="33.3"/>
	<line class="st1" x1="67.5" y1="53.4" x2="50.9" y2="33.3"/>
	<line class="st1" x1="50.9" y1="33.3" x2="50.9" y2="19.8"/>
	<line class="st1" x1="50.9" y1="19.8" x2="50.9" y2="16.7"/>
	<polyline class="st0" points="6.8,61.2 48.3,19.8 50.9,19.8 50.9,16.7 46.6,16.7 4.4,58.8 	"/>
	<line class="st1" x1="50.9" y1="16.7" x2="53.4" y2="15.4"/>
</g>
<g>
	<polygon class="st0" points="116.4,96.8 116.4,67.6 99.7,44.5 82.9,48.3 82.9,77.6 	"/>
	<polygon class="st0" points="151,47.6 151,76.8 116.4,96.8 116.4,67.6 	"/>
	<polygon class="st0" points="131.8,74.5 131.8,88.1 119.4,95.2 119.4,81.6 	"/>
	<line class="st0" x1="119.4" y1="86" x2="131.8" y2="78.8"/>
	<polygon class="st0" points="109.6,80.2 109.6,92.8 105.2,90.2 105.2,77.5 	"/>
	<line class="st1" x1="123.2" y1="93" x2="123.2" y2="83.8"/>
	<line class="st1" x1="127.8" y1="81.1" x2="127.8" y2="90.4"/>
	<polygon class="st0" points="116.4,67.6 99.7,44.5 82.9,48.3 117.6,28.3 134.3,24.5 151,47.6 	"/>
	<line class="st1" x1="134.3" y1="24.5" x2="99.7" y2="44.5"/>
	<line class="st2" x1="102.3" y1="42.9" x2="119.1" y2="66.4"/>
	<line class="st2" x1="105.4" y1="41.3" x2="122.1" y2="64.8"/>
	<line class="st2" x1="108.4" y1="39.7" x2="125.2" y2="63.2"/>
	<line class="st2" x1="111.3" y1="37.8" x2="128.1" y2="61.3"/>
	<line class="st2" x1="114.3" y1="36.1" x2="131" y2="59.6"/>
	<line class="st2" x1="117.3" y1="34.4" x2="134.1" y2="57.9"/>
	<line class="st2" x1="120.4" y1="32.9" x2="137.2" y2="56.4"/>
	<line class="st2" x1="123.3" y1="31" x2="140" y2="54.5"/>
	<line class="st2" x1="126.3" y1="29.2" x2="143" y2="52.7"/>
	<line class="st2" x1="129.3" y1="27.6" x2="146.1" y2="51.1"/>
	<line class="st2" x1="132.4" y1="26" x2="149.1" y2="49.5"/>
	<line class="st2" x1="85.3" y1="46.8" x2="102.3" y2="42.9"/>
	<line class="st2" x1="88.4" y1="45.2" x2="105.4" y2="41.3"/>
	<line class="st2" x1="91.5" y1="43.6" x2="108.4" y2="39.7"/>
	<line class="st2" x1="94.3" y1="41.7" x2="111.3" y2="37.8"/>
	<line class="st2" x1="97.3" y1="39.9" x2="114.3" y2="36.1"/>
	<line class="st2" x1="100.4" y1="38.3" x2="117.3" y2="34.4"/>
	<line class="st2" x1="103.5" y1="36.7" x2="120.4" y2="32.9"/>
	<line class="st2" x1="106.3" y1="34.8" x2="123.3" y2="31"/>
	<line class="st2" x1="109.3" y1="33.1" x2="126.3" y2="29.2"/>
	<line class="st2" x1="112.3" y1="31.4" x2="129.3" y2="27.6"/>
	<line class="st2" x1="115.4" y1="29.8" x2="132.4" y2="26"/>
</g>
</svg>
