<?xml version="1.0" encoding="utf-8"?>
<!-- Generator: Adobe Illustrator 19.1.0, SVG Export Plug-In . SVG Version: 6.00 Build 0)  -->
<svg version="1.1" id="Layer_1" xmlns="http://www.w3.org/2000/svg" xmlns:xlink="http://www.w3.org/1999/xlink" x="0px" y="0px"
	 viewBox="0 0 121.6 110" style="enable-background:new 0 0 121.6 110;" xml:space="preserve">
<style type="text/css">
	.st0{fill:#FFFFFF;stroke:#13164C;stroke-linejoin:bevel;stroke-miterlimit:10;}
	.st1{fill:none;stroke:#13164C;stroke-linejoin:bevel;stroke-miterlimit:10;}
</style>
<g>
	<path class="st0" d="M117.1,42.3c0-7.8-6.3-14.1-14-14.2c-2.8-9.8-11.8-16.9-22.4-16.9c-3.9,0-7.5,1-10.7,2.6
		c-4-3.9-9.5-6.3-15.5-6.3c-12.3,0-22.2,10-22.2,22.2c0,1.4,0.1,2.8,0.4,4.2c-3.5,2.2-5.9,6.1-5.9,10.5c0,3.6,1.5,6.8,4,9.1
		c-0.7,1.9-1.1,4-1.1,6.2c0,10.1,8.2,18.2,18.2,18.2c3.2,0,6.1-0.8,8.7-2.2c3.4,3.6,8.2,5.8,13.5,5.8c6,0,11.3-2.8,14.7-7.2
		c2,1,4.1,1.5,6.5,1.5c6,0,11.1-3.6,13.4-8.7c5.4-1.5,9.3-6.4,9.3-12.2c0-1.1-0.2-2.2-0.4-3.2C115.8,49.2,117.1,45.9,117.1,42.3z"/>
	<circle class="st0" cx="18.6" cy="72.1" r="7.8"/>
	<circle class="st0" cx="10.8" cy="87.9" r="5.6"/>
	<circle class="st0" cx="18.6" cy="99.3" r="3.2"/>
</g>
<g>
	<polygon class="st0" points="54,70.7 88.7,50.7 88.7,34.7 74.8,26.7 40.2,46.7 40.2,62.7 	"/>
	<polygon class="st0" points="53.9,54.7 88.5,34.7 74.6,26.7 40,46.7 	"/>
	<polyline class="st1" points="76.4,37.9 88.5,30.9 74.6,22.9 62.5,30 	"/>
	<polygon class="st0" points="60,46.3 71.9,39.3 64.6,35.1 52.7,42 	"/>
	<polygon class="st0" points="88.5,34.7 88.5,50.7 53.9,70.7 53.9,54.7 	"/>
	<polygon class="st0" points="69.2,48.3 69.2,61.9 56.8,69.1 56.8,55.4 	"/>
	<line class="st0" x1="56.8" y1="59.8" x2="69.2" y2="52.7"/>
	<polygon class="st0" points="47.1,54 47.1,66.7 42.6,64 42.6,51.4 	"/>
	<path class="st0" d="M99.3,42.1c-3.8,1.5-11.4,0.9-15-2.8l-13.1,7.6c3.6,3.7,11.2,4.3,15,2.8L99.3,42.1"/>
	<line class="st1" x1="86.2" y1="49.6" x2="86.2" y2="66"/>
	<line class="st1" x1="98.5" y1="42.7" x2="98.5" y2="59.1"/>
	<line class="st1" x1="42.6" y1="60.9" x2="47.1" y2="58.4"/>
	<line class="st1" x1="60.7" y1="66.8" x2="60.7" y2="57.6"/>
	<line class="st1" x1="65.3" y1="55" x2="65.3" y2="64.2"/>
	<line class="st1" x1="74.8" y1="26.7" x2="74.8" y2="22.9"/>
	<line class="st1" x1="88.7" y1="34.7" x2="88.7" y2="30.9"/>
	<line class="st1" x1="76.4" y1="41.6" x2="76.4" y2="37.9"/>
	<line class="st1" x1="62.5" y1="33.7" x2="62.5" y2="30"/>
</g>
</svg>
