<?xml version="1.0" encoding="utf-8"?>
<!-- Generator: Adobe Illustrator 19.1.0, SVG Export Plug-In . SVG Version: 6.00 Build 0)  -->
<svg version="1.1" id="Layer_1" xmlns="http://www.w3.org/2000/svg" xmlns:xlink="http://www.w3.org/1999/xlink" x="0px" y="0px"
	 viewBox="0 0 121.6 110" style="enable-background:new 0 0 121.6 110;" xml:space="preserve">
<style type="text/css">
	.st0{fill:#FFFFFF;}
	.st1{fill:none;stroke:#13164C;stroke-linejoin:bevel;stroke-miterlimit:10;}
	.st2{opacity:0.3;fill:none;stroke:#13164C;stroke-width:0.5;stroke-linejoin:bevel;stroke-miterlimit:10;}
</style>
<g>
	<polygon class="st0" points="35,110 121.6,60 121.6,20 87,0 0.4,50 0.4,90 	"/>
	<polygon class="st1" points="34.6,70 121.2,20 86.6,0 0,50 	"/>
	<polygon class="st1" points="34.6,70 34.6,110 0,90 0,50 	"/>
	<polygon class="st1" points="121.2,20 121.2,60 34.6,110 34.6,70 	"/>
	<line class="st1" x1="17.3" y1="60" x2="17.3" y2="100"/>
	<line class="st2" x1="37.6" y1="68.3" x2="37.6" y2="108.2"/>
	<line class="st2" x1="40.6" y1="66.7" x2="40.6" y2="106.6"/>
	<line class="st2" x1="43.5" y1="65.2" x2="43.5" y2="105.1"/>
	<line class="st2" x1="46.5" y1="63.2" x2="46.5" y2="103.1"/>
	<line class="st2" x1="49.5" y1="61.4" x2="49.5" y2="101.4"/>
	<line class="st2" x1="52.5" y1="59.9" x2="52.5" y2="99.8"/>
	<line class="st2" x1="55.5" y1="58.3" x2="55.5" y2="98.3"/>
	<line class="st2" x1="58.5" y1="56.4" x2="58.5" y2="96.3"/>
	<line class="st2" x1="61.5" y1="54.6" x2="61.5" y2="94.5"/>
	<line class="st2" x1="64.5" y1="53" x2="64.5" y2="92.9"/>
	<line class="st2" x1="67.5" y1="51.5" x2="67.5" y2="91.4"/>
	<line class="st2" x1="70.4" y1="49.5" x2="70.4" y2="89.4"/>
	<line class="st2" x1="73.4" y1="47.7" x2="73.4" y2="87.7"/>
	<line class="st2" x1="76.4" y1="46.1" x2="76.4" y2="86.1"/>
	<line class="st2" x1="79.4" y1="44.6" x2="79.4" y2="84.5"/>
	<line class="st2" x1="82.4" y1="42.7" x2="82.4" y2="82.6"/>
	<line class="st2" x1="85.4" y1="40.9" x2="85.4" y2="80.8"/>
	<line class="st2" x1="88.4" y1="39.3" x2="88.4" y2="79.2"/>
	<line class="st2" x1="91.4" y1="37.8" x2="91.4" y2="77.7"/>
	<line class="st2" x1="94.3" y1="35.8" x2="94.3" y2="75.7"/>
	<line class="st2" x1="97.3" y1="33.8" x2="97.3" y2="73.7"/>
	<line class="st2" x1="100.3" y1="32.2" x2="100.3" y2="72.1"/>
	<line class="st2" x1="103.3" y1="30.6" x2="103.3" y2="70.6"/>
	<line class="st2" x1="106.3" y1="28.7" x2="106.3" y2="68.6"/>
	<line class="st2" x1="109.3" y1="26.9" x2="109.3" y2="66.8"/>
	<line class="st2" x1="112.3" y1="25.3" x2="112.3" y2="65.3"/>
	<line class="st2" x1="115.3" y1="23.8" x2="115.3" y2="63.7"/>
	<line class="st2" x1="118.3" y1="21.8" x2="118.3" y2="61.8"/>
</g>
</svg>
