<?xml version="1.0" encoding="utf-8"?>
<!-- Generator: Adobe Illustrator 19.1.0, SVG Export Plug-In . SVG Version: 6.00 Build 0)  -->
<svg version="1.1" id="Layer_2" xmlns="http://www.w3.org/2000/svg" xmlns:xlink="http://www.w3.org/1999/xlink" x="0px" y="0px"
	 viewBox="-342 249.3 155.9 97" style="enable-background:new -342 249.3 155.9 97;" xml:space="preserve">
<style type="text/css">
	.st0{fill:#FFFFFF;}
	.st1{fill:none;stroke:#13164C;stroke-miterlimit:10;}
	.st2{fill:#13164C;stroke:#13164C;stroke-linejoin:bevel;stroke-miterlimit:10;}
	.st3{fill:none;stroke:#13164C;stroke-linejoin:bevel;stroke-miterlimit:10;}
	.st4{fill:#13164C;}
</style>
<g>
	<polyline class="st0" points="-341.6,316.4 -341.6,286.9 -333.9,279.3 -297.1,279.3 -260.2,279.3 -260.2,308.7 -267.9,316.4 	"/>
	<rect x="-341.6" y="286.9" class="st1" width="73.7" height="29.5"/>
	<polygon class="st2" points="-260.2,279.3 -267.9,286.9 -267.9,316.4 -260.2,308.7 	"/>
	<polyline class="st3" points="-260.2,279.3 -333.9,279.3 -341.6,286.9 	"/>
	<g>
		<path class="st4" d="M-326.4,300.9c-0.4,0-0.7-0.3-1.2-0.3c-0.9,0-1.3,0.8-1.3,1.5c0,0.7,0.4,1.5,1.3,1.5c0.4,0,0.9-0.3,1.1-0.3
			c0.4,0,0.6,0.3,0.6,0.7c0,0.8-1.3,1-1.8,1c-1.6,0-2.7-1.3-2.7-2.9c0-1.5,1.1-2.9,2.7-2.9c0.6,0,1.8,0.2,1.8,0.9
			C-325.8,300.5-326,300.9-326.4,300.9z"/>
		<path class="st4" d="M-319.6,302.2c0,1.6-1.1,2.9-2.7,2.9s-2.7-1.3-2.7-2.9c0-1.5,1.1-2.9,2.7-2.9S-319.6,300.7-319.6,302.2z
			 M-323.5,302.2c0,0.7,0.4,1.5,1.2,1.5s1.2-0.8,1.2-1.5s-0.4-1.5-1.2-1.5C-323.1,300.7-323.5,301.5-323.5,302.2z"/>
		<path class="st4" d="M-318.5,300.2c0-0.5,0.3-0.8,0.7-0.8c0.4,0,0.6,0.2,0.7,0.6c0.3-0.4,0.7-0.6,1.4-0.6c1.2,0,2,0.7,2,2v2.9
			c0,0.5-0.3,0.8-0.7,0.8s-0.7-0.3-0.7-0.8v-2.6c0-0.7-0.4-1-1-1c-0.6,0-1,0.4-1,1v2.6c0,0.5-0.3,0.8-0.7,0.8
			c-0.4,0-0.7-0.3-0.7-0.8V300.2z"/>
		<path class="st4" d="M-311.8,300.7h-0.3c-0.4,0-0.7-0.3-0.7-0.7c0-0.4,0.3-0.7,0.7-0.7h0.3v-0.9c0-0.5,0.3-0.8,0.7-0.8
			c0.4,0,0.7,0.3,0.7,0.8v0.9h0.4c0.4,0,0.7,0.2,0.7,0.7c0,0.5-0.3,0.7-0.7,0.7h-0.4v3.5c0,0.5-0.3,0.8-0.7,0.8
			c-0.4,0-0.7-0.3-0.7-0.8V300.7z"/>
		<path class="st4" d="M-303.5,304c0,0.4,0,1-0.7,1c-0.4,0-0.6-0.2-0.7-0.6c-0.4,0.5-0.9,0.7-1.4,0.7c-1.4,0-2.5-1.2-2.5-2.9
			c0-1.6,1.1-2.9,2.5-2.9c0.6,0,1.1,0.2,1.4,0.7c0-0.4,0.4-0.6,0.7-0.6c0.7,0,0.7,0.6,0.7,1V304z M-306.1,303.7
			c0.8,0,1.2-0.8,1.2-1.5s-0.4-1.5-1.2-1.5c-0.8,0-1.2,0.8-1.2,1.5S-306.9,303.7-306.1,303.7z"/>
		<path class="st4" d="M-300.5,297.9c0,0.5-0.4,0.9-0.8,0.9c-0.4,0-0.8-0.4-0.8-0.9c0-0.4,0.4-0.8,0.8-0.8S-300.5,297.5-300.5,297.9
			z M-302.1,300.2c0-0.5,0.3-0.8,0.7-0.8c0.4,0,0.7,0.3,0.7,0.8v4c0,0.5-0.3,0.8-0.7,0.8c-0.4,0-0.7-0.3-0.7-0.8V300.2z"/>
		<path class="st4" d="M-299.3,300.2c0-0.5,0.3-0.8,0.7-0.8c0.4,0,0.6,0.2,0.7,0.6c0.3-0.4,0.7-0.6,1.4-0.6c1.2,0,2,0.7,2,2v2.9
			c0,0.5-0.3,0.8-0.7,0.8s-0.7-0.3-0.7-0.8v-2.6c0-0.7-0.4-1-1-1c-0.6,0-1,0.4-1,1v2.6c0,0.5-0.3,0.8-0.7,0.8
			c-0.4,0-0.7-0.3-0.7-0.8V300.2z"/>
		<path class="st4" d="M-291.8,302.7c0.1,0.7,0.7,1.1,1.4,1.1c0.8,0,1.3-0.6,1.7-0.6c0.3,0,0.6,0.3,0.6,0.6c0,0.6-1.3,1.3-2.4,1.3
			c-1.7,0-2.8-1.2-2.8-2.9c0-1.5,1.1-2.9,2.7-2.9c1.6,0,2.7,1.5,2.7,2.7c0,0.4-0.2,0.7-0.7,0.7H-291.8z M-289.4,301.7
			c-0.1-0.7-0.5-1.1-1.2-1.1c-0.7,0-1.1,0.5-1.2,1.1H-289.4z"/>
		<path class="st4" d="M-286.9,300.1c0-0.5,0.4-0.7,0.8-0.7c0.4,0,0.7,0.1,0.7,0.6h0c0.3-0.4,0.6-0.6,1-0.6c0.4,0,0.7,0.3,0.7,0.8
			c0,0.5-0.4,0.5-0.9,0.7c-0.4,0.2-0.9,0.4-0.9,1v2.3c0,0.5-0.3,0.8-0.7,0.8c-0.4,0-0.7-0.3-0.7-0.8V300.1z"/>
		<path class="st4" d="M-279.7,301c-0.3,0-0.9-0.4-1.3-0.4c-0.3,0-0.5,0.1-0.5,0.4c0,0.7,2.6,0.6,2.6,2.3c0,1-0.8,1.8-2.1,1.8
			c-0.8,0-2.1-0.5-2.1-1.2c0-0.2,0.2-0.7,0.6-0.7c0.6,0,0.8,0.5,1.5,0.5c0.5,0,0.6-0.1,0.6-0.4c0-0.7-2.6-0.6-2.6-2.3
			c0-1,0.8-1.7,2-1.7c0.7,0,1.9,0.3,1.9,1.1C-279.1,300.7-279.4,301-279.7,301z"/>
	</g>
</g>
</svg>
