<?xml version="1.0" encoding="utf-8"?>
<!-- Generator: Adobe Illustrator 19.1.0, SVG Export Plug-In . SVG Version: 6.00 Build 0)  -->
<svg version="1.1" id="Layer_2" xmlns="http://www.w3.org/2000/svg" xmlns:xlink="http://www.w3.org/1999/xlink" x="0px" y="0px"
	 viewBox="-342 249.3 155.9 97" style="enable-background:new -342 249.3 155.9 97;" xml:space="preserve">
<style type="text/css">
	.st0{fill:#FFFFFF;}
	.st1{fill:none;stroke:#13164C;stroke-miterlimit:10;}
	.st2{fill:#13164C;stroke:#13164C;stroke-linejoin:bevel;stroke-miterlimit:10;}
	.st3{fill:none;stroke:#13164C;stroke-linejoin:bevel;stroke-miterlimit:10;}
	.st4{fill:#13164C;}
</style>
<g>
	<polygon class="st0" points="-341.5,286.9 -341.5,257.4 -333.9,249.8 -297.1,249.8 -297.1,279.2 -304.7,286.9 	"/>
	<rect x="-341.5" y="257.4" class="st1" width="36.8" height="29.4"/>
	<polygon class="st2" points="-297.1,249.8 -304.7,257.4 -304.7,286.9 -297.1,279.2 	"/>
	<polyline class="st3" points="-297.1,249.8 -333.9,249.8 -341.5,257.4 	"/>
	<g>
		<path class="st4" d="M-332.9,268.7c0-0.6,0.4-1,1-1c0.6,0,1,0.4,1,1v2.8h4.1v-2.8c0-0.6,0.4-1,1-1s1,0.4,1,1v7.4c0,0.6-0.4,1-1,1
			s-1-0.4-1-1v-2.8h-4.1v2.8c0,0.6-0.4,1-1,1c-0.6,0-1-0.4-1-1V268.7z"/>
		<path class="st4" d="M-323.1,268.7c0-0.6,0.4-1,1-1c0.6,0,1,0.4,1,1v7.4c0,0.6-0.4,1-1,1c-0.6,0-1-0.4-1-1V268.7z"/>
		<path class="st4" d="M-319.3,268.8c0-0.6,0.4-1,1-1h2.3c1.9,0,3.3,1.2,3.3,3.1c0,1.9-1.5,3.1-3.2,3.1h-1.4v2.1c0,0.6-0.4,1-1,1
			s-1-0.4-1-1V268.8z M-317.4,272.2h1.3c0.8,0,1.3-0.6,1.3-1.4s-0.5-1.4-1.3-1.4h-1.3V272.2z"/>
	</g>
</g>
</svg>
