<?xml version="1.0" encoding="utf-8"?>
<!-- Generator: Adobe Illustrator 19.1.0, SVG Export Plug-In . SVG Version: 6.00 Build 0)  -->
<svg version="1.1" id="Layer_1" xmlns="http://www.w3.org/2000/svg" xmlns:xlink="http://www.w3.org/1999/xlink" x="0px" y="0px"
	 viewBox="0 0 155.9 97" style="enable-background:new 0 0 155.9 97;" xml:space="preserve">
<style type="text/css">
	.st0{fill:#FFFFFF;}
	.st1{fill:#13164C;}
</style>
<g>
	<g>
		<polyline class="st0" points="0.5,96.5 147.8,96.5 0.5,96.5 0.5,8.1 8.1,0.5 44.9,0.5 44.9,30.6 81.8,30.6 81.8,59.4 155.4,59.4 
			155.4,88.9 147.8,96.5 		"/>
	</g>
	<g>
		<path class="st1" d="M37.8,38.1H0V7.6h37.8V38.1z M1,37.1h35.8V8.6H1V37.1z"/>
	</g>
	<g>
		<path class="st1" d="M74.7,67.5H0V37.1h74.7V67.5z M1,66.5h72.7V38.1H1V66.5z"/>
	</g>
	<g>
		<path class="st1" d="M147.8,97H0.5L0,96.5V67l0.5-0.5h147.3l0.5,0.5v29.5L147.8,97z M1,96h146.3V67.5H1V96z"/>
	</g>
	<g>
		<polygon class="st1" points="155.4,59.4 147.8,67 147.8,96.5 155.4,88.9 		"/>
		<path class="st1" d="M148.2,96.9l-0.9-0.4V67l0.1-0.4l7.6-7.6l0.9,0.4v29.5l-0.1,0.4L148.2,96.9z M148.3,67.2v28l6.6-6.6v-28
			L148.3,67.2z"/>
	</g>
	<g>
		<polygon class="st1" points="81.8,30.6 74.2,38.2 74.2,67.7 81.8,60.1 		"/>
		<path class="st1" d="M74.5,68l-0.9-0.4V38.2l0.1-0.4l7.6-7.6l0.9,0.4v29.5l-0.1,0.4L74.5,68z M74.7,38.4v28l6.6-6.6v-28L74.7,38.4
			z"/>
	</g>
	<g>
		<polygon class="st1" points="44.9,0.5 37.3,8.1 37.3,37.6 44.9,30 		"/>
		<path class="st1" d="M37.7,37.9l-0.9-0.4V8.1L37,7.8l7.6-7.6l0.9,0.4V30l-0.1,0.4L37.7,37.9z M37.8,8.3v28l6.6-6.6v-28L37.8,8.3z"
			/>
	</g>
	<g>
		<polygon class="st1" points="0.9,8.5 0.1,7.8 7.8,0.1 8.1,0 44.9,0 44.9,1 8.3,1 		"/>
	</g>
	<g>
		<rect x="81.8" y="58.9" class="st1" width="73.7" height="1"/>
	</g>
	<g>
		<rect x="44.9" y="30.1" class="st1" width="36.8" height="1"/>
	</g>
	<g>
		<path class="st1" d="M0.5,96.5"/>
	</g>
</g>
<g>
	<path class="st1" d="M9.1,19.4c0-0.6,0.4-1,1-1c0.6,0,1,0.4,1,1v2.8h4.1v-2.8c0-0.6,0.4-1,1-1c0.6,0,1,0.4,1,1v7.4c0,0.6-0.4,1-1,1
		c-0.6,0-1-0.4-1-1v-2.8h-4.1v2.8c0,0.6-0.4,1-1,1c-0.6,0-1-0.4-1-1V19.4z"/>
	<path class="st1" d="M18.9,19.4c0-0.6,0.4-1,1-1c0.6,0,1,0.4,1,1v7.4c0,0.6-0.4,1-1,1c-0.6,0-1-0.4-1-1V19.4z"/>
	<path class="st1" d="M22.7,19.5c0-0.6,0.4-1,1-1H26c1.9,0,3.3,1.2,3.3,3.1c0,1.9-1.5,3.1-3.2,3.1h-1.4v2.1c0,0.6-0.4,1-1,1
		c-0.6,0-1-0.4-1-1V19.5z M24.6,22.9h1.3c0.8,0,1.3-0.6,1.3-1.4c0-0.8-0.5-1.4-1.3-1.4h-1.3V22.9z"/>
</g>
<g>
	<path class="st1" d="M15.1,51.7c-0.4,0-0.7-0.3-1.2-0.3c-0.9,0-1.3,0.8-1.3,1.5c0,0.7,0.4,1.5,1.3,1.5c0.4,0,0.9-0.3,1.1-0.3
		c0.4,0,0.6,0.3,0.6,0.7c0,0.8-1.3,1-1.8,1c-1.6,0-2.7-1.3-2.7-2.9c0-1.5,1.1-2.9,2.7-2.9c0.6,0,1.8,0.2,1.8,0.9
		C15.7,51.3,15.5,51.7,15.1,51.7z"/>
	<path class="st1" d="M21.9,52.9c0,1.6-1.1,2.9-2.7,2.9c-1.6,0-2.7-1.3-2.7-2.9c0-1.5,1.1-2.9,2.7-2.9S21.9,51.4,21.9,52.9z
		 M18,52.9c0,0.7,0.4,1.5,1.2,1.5s1.2-0.8,1.2-1.5s-0.4-1.5-1.2-1.5S18,52.2,18,52.9z"/>
	<path class="st1" d="M23,50.9c0-0.5,0.3-0.8,0.7-0.8c0.4,0,0.6,0.2,0.7,0.6c0.3-0.4,0.7-0.6,1.4-0.6c1.2,0,2,0.7,2,2v2.9
		c0,0.5-0.3,0.8-0.7,0.8c-0.4,0-0.7-0.3-0.7-0.8v-2.6c0-0.7-0.4-1-1-1c-0.6,0-1,0.4-1,1v2.6c0,0.5-0.3,0.8-0.7,0.8S23,55.4,23,54.9
		V50.9z"/>
	<path class="st1" d="M29.7,51.4h-0.3c-0.4,0-0.7-0.2-0.7-0.7c0-0.4,0.3-0.7,0.7-0.7h0.3v-0.9c0-0.5,0.3-0.8,0.7-0.8
		c0.4,0,0.7,0.3,0.7,0.8v0.9h0.4c0.4,0,0.7,0.2,0.7,0.7c0,0.5-0.3,0.7-0.7,0.7h-0.4v3.5c0,0.5-0.3,0.8-0.7,0.8
		c-0.4,0-0.7-0.3-0.7-0.8V51.4z"/>
	<path class="st1" d="M38,54.7c0,0.4,0,1-0.7,1c-0.4,0-0.6-0.2-0.7-0.6c-0.4,0.5-0.9,0.7-1.4,0.7c-1.4,0-2.5-1.2-2.5-2.9
		c0-1.6,1.1-2.9,2.5-2.9c0.6,0,1.1,0.2,1.4,0.7c0-0.4,0.4-0.6,0.7-0.6c0.7,0,0.7,0.6,0.7,1V54.7z M35.4,54.4c0.8,0,1.2-0.8,1.2-1.5
		s-0.4-1.5-1.2-1.5c-0.8,0-1.2,0.8-1.2,1.5S34.6,54.4,35.4,54.4z"/>
	<path class="st1" d="M41,48.6c0,0.5-0.4,0.9-0.8,0.9c-0.4,0-0.8-0.4-0.8-0.9c0-0.4,0.4-0.8,0.8-0.8S41,48.2,41,48.6z M39.4,50.9
		c0-0.5,0.3-0.8,0.7-0.8s0.7,0.3,0.7,0.8v4c0,0.5-0.3,0.8-0.7,0.8s-0.7-0.3-0.7-0.8V50.9z"/>
	<path class="st1" d="M42.2,50.9c0-0.5,0.3-0.8,0.7-0.8c0.4,0,0.6,0.2,0.7,0.6c0.3-0.4,0.7-0.6,1.4-0.6c1.2,0,2,0.7,2,2v2.9
		c0,0.5-0.3,0.8-0.7,0.8c-0.4,0-0.7-0.3-0.7-0.8v-2.6c0-0.7-0.4-1-1-1c-0.6,0-1,0.4-1,1v2.6c0,0.5-0.3,0.8-0.7,0.8s-0.7-0.3-0.7-0.8
		V50.9z"/>
	<path class="st1" d="M49.7,53.4c0.1,0.7,0.7,1.1,1.4,1.1c0.8,0,1.3-0.6,1.7-0.6c0.3,0,0.6,0.3,0.6,0.6c0,0.6-1.3,1.3-2.4,1.3
		c-1.7,0-2.8-1.2-2.8-2.9c0-1.5,1.1-2.9,2.7-2.9c1.6,0,2.7,1.5,2.7,2.7c0,0.4-0.2,0.7-0.7,0.7H49.7z M52.1,52.4
		c-0.1-0.7-0.5-1.1-1.2-1.1c-0.7,0-1.1,0.5-1.2,1.1H52.1z"/>
	<path class="st1" d="M54.6,50.8c0-0.5,0.4-0.7,0.8-0.7c0.4,0,0.7,0.1,0.7,0.6h0c0.3-0.4,0.6-0.6,1-0.6c0.4,0,0.7,0.3,0.7,0.8
		c0,0.5-0.4,0.5-0.9,0.7c-0.4,0.2-0.9,0.4-0.9,1v2.3c0,0.5-0.3,0.8-0.7,0.8s-0.7-0.3-0.7-0.8V50.8z"/>
	<path class="st1" d="M61.7,51.7c-0.3,0-0.9-0.4-1.3-0.4c-0.3,0-0.5,0.1-0.5,0.4c0,0.7,2.6,0.6,2.6,2.3c0,1-0.8,1.8-2.1,1.8
		c-0.8,0-2.1-0.5-2.1-1.2c0-0.2,0.2-0.7,0.6-0.7c0.6,0,0.8,0.5,1.5,0.5c0.5,0,0.6-0.1,0.6-0.4c0-0.7-2.6-0.6-2.6-2.3
		c0-1,0.8-1.7,2-1.7c0.7,0,1.9,0.3,1.9,1.1C62.4,51.4,62.1,51.7,61.7,51.7z"/>
</g>
</svg>
